inDegrees=yes
name=ik_Shooting_orientations_side
DataType=double
version=3
OpenSimVersion=4.3-2021-08-27-4bc7ad9
endheader
time	pelvis_tilt	pelvis_list	pelvis_rotation	pelvis_tx	pelvis_ty	pelvis_tz	hip_flexion_r	hip_adduction_r	hip_rotation_r	knee_angle_r	knee_angle_r_beta	ankle_angle_r	subtalar_angle_r	mtp_angle_r	hip_flexion_l	hip_adduction_l	hip_rotation_l	knee_angle_l	knee_angle_l_beta	ankle_angle_l	subtalar_angle_l	mtp_angle_l	lumbar_extension	lumbar_bending	lumbar_rotation	arm_flex_r	arm_add_r	arm_rot_r	elbow_flex_r	pro_sup_r	wrist_flex_r	wrist_dev_r	arm_flex_l	arm_add_l	arm_rot_l	elbow_flex_l	pro_sup_l	wrist_flex_l	wrist_dev_l
5	-0.1255646839483447	-0.8420623140164518	147.5594947825128	0	0.9399999999999999	0	42.80302251771475	-10.16292437889751	0	59.55589081046489	1.039446383600847	-5.029684865080531	0	0	42.80302251771475	-10.16292437889751	0	59.55589081046489	1.039446383600847	-5.029684865080531	0	0	2.177297257344787	-0.06269972529286862	-3.66596746080138	0	-11.00294245282817	0	76.4035991645529	45.09153363153347	0	0	-12.65896654773568	18.54684779551419	-13.37496692088645	76.4035991645529	45.09153363153347	0	0
5.01	-0.1212809156633927	-0.8379735556319018	147.5718868026519	0	0.9399999999999999	0	42.80345542992434	-10.1628125880496	0	59.55595959240655	1.039447584072194	-5.029658310892991	0	0	42.80345542992434	-10.1628125880496	0	59.55595959240655	1.039447584072194	-5.029658310892991	0	0	2.171378207159871	-0.05399054105039788	-3.690313111359931	0	-11.00334643206314	0	76.40332276122098	45.09148392711368	0	0	-13.11143383627033	18.00184605582487	-13.17035131165278	76.40332276122098	45.09148392711368	0	0
5.02	-0.1271687008674472	-0.8606012619500263	147.5673192945565	0	0.9399999999999999	0	42.80402422755118	-10.16266553187564	0	59.5560498489963	1.039449159346857	-5.029623375543765	0	0	42.80402422755118	-10.16266553187564	0	59.5560498489963	1.039449159346857	-5.029623375543765	0	0	2.1873019984824	-0.07273562304169057	-3.664741975203963	0	-11.00387677033028	0	76.4029595989398	45.09141855352909	0	0	-13.67786534172111	17.43809519434596	-12.93138704223952	76.4029595989398	45.09141855352909	0	0
5.03	-0.1357841748326348	-0.8631846215207207	147.5712776872713	0	0.9399999999999999	0	42.8046077272164	-10.16251474846852	0	59.55614243031482	1.039450775195691	-5.029587563717266	0	0	42.8046077272164	-10.16251474846852	0	59.55614243031482	1.039450775195691	-5.029587563717266	0	0	2.195077506345079	-0.07809171104044051	-3.654971792772897	0	-11.00442082963651	0	76.40258704970448	45.09135151197128	0	0	-14.20333551572916	16.63101336930745	-12.66356636499343	76.40258704970448	45.09135151197128	0	0
5.04	-0.1396091090597085	-0.8651272180719588	147.574293066135	0	0.9399999999999999	0	42.80518339238658	-10.16236606725833	0	59.55623376481489	1.039452369283438	-5.029552260059091	0	0	42.80518339238658	-10.16236606725833	0	59.55623376481489	1.039452369283438	-5.029552260059091	0	0	2.186429232522785	-0.08226047260594574	-3.658848170805368	0	-11.00495761573866	0	76.4022195024808	45.09128539404634	0	0	-14.68112272858121	15.87640520658514	-12.5322105930697	76.4022195024808	45.09128539404634	0	0
5.05	-0.1239461697036652	-0.8643391680972311	147.5813475347978	0	0.9399999999999999	0	42.80562973980129	-10.16225103251931	0	59.55630467211922	1.039453606849362	-5.029524960877264	0	0	42.80562973980129	-10.16225103251931	0	59.55630467211922	1.039453606849362	-5.029524960877264	0	0	2.189737290229198	-0.060816391452133	-3.67415728325373	0	-11.00537422923031	0	76.40193452080112	45.09123421547115	0	0	-15.21495269571461	15.22869214732884	-12.56047926542103	76.40193452080112	45.09123421547115	0	0
5.06	-0.1145996381251188	-0.86974095040538	147.5879527338431	0	0.9399999999999999	0	42.80605885127635	-10.16214059386567	0	59.5563728899827	1.039454797475689	-5.029498762883418	0	0	42.80605885127635	-10.16214059386567	0	59.5563728899827	1.039454797475689	-5.029498762883418	0	0	2.20693673694279	-0.0569478776112471	-3.656087027015839	0	-11.0057749866934	0	76.40166054355515	45.09118506634481	0	0	-15.6392963620611	14.51188646432169	-12.49927892827052	76.40166054355515	45.09118506634481	0	0
5.07	-0.1245972258585561	-0.8756123551974629	147.6027892229662	0	0.9399999999999999	0	42.80648413383187	-10.16203120067965	0	59.55644050460423	1.039455977573457	-5.029472818673596	0	0	42.80648413383187	-10.16203120067965	0	59.55644050460423	1.039455977573457	-5.029472818673596	0	0	2.199298139363674	-0.0660769838471021	-3.664987074628028	0	-11.00617221715762	0	76.40138901088933	45.09113637492472	0	0	-16.0500159586382	13.86838414791992	-12.3126768736706	76.40138901088933	45.09113637492472	0	0
5.08	-0.1278232011814488	-0.893997255547053	147.6024392697339	0	0.9399999999999999	0	42.80712044822846	-10.16186717083483	0	59.55654146305123	1.039457739630765	-5.029433904449037	0	0	42.80712044822846	-10.16186717083483	0	59.55654146305123	1.039457739630765	-5.029433904449037	0	0	2.224477861915289	-0.08737397583460346	-3.637259298485462	0	-11.00676573399571	0	76.4009827402576	45.09106338860925	0	0	-16.48264548036969	13.18160935082135	-12.13196114711896	76.4009827402576	45.09106338860925	0	0
5.09	-0.1318818523332142	-0.9026502834051721	147.60979054072	0	0.9399999999999999	0	42.80767334150638	-10.16172487033318	0	59.55662925009781	1.039459271803768	-5.029400161432283	0	0	42.80767334150638	-10.16172487033318	0	59.55662925009781	1.039459271803768	-5.029400161432283	0	0	2.230265735119481	-0.09576328583534045	-3.631896477999407	0	-11.00728175784083	0	76.40062973149426	45.09100004771818	0	0	-16.80967913132344	12.57675072229081	-11.77069593729929	76.40062973149426	45.09100004771818	0	0
5.1	-0.1214887782652665	-0.9120175021811099	147.6158582169072	0	0.9399999999999999	0	42.80823957097095	-10.16157922529496	0	59.5567191572036	1.039460840978785	-5.029365634489213	0	0	42.80823957097095	-10.16157922529496	0	59.5567191572036	1.039460840978785	-5.029365634489213	0	0	2.243411863807515	-0.09452987315695599	-3.617290471706677	0	-11.00781028388475	0	76.40026820777567	45.09093520639582	0	0	-16.96528860111431	11.99169822432685	-11.31881603770512	76.40026820777567	45.09093520639582	0	0
5.11	-0.1060958991182394	-0.8986066485307993	147.6577833666935	0	0.9399999999999999	0	42.80852827628342	-10.16150541175045	0	59.55676519220465	1.039461644441125	-5.029348159948881	0	0	42.80852827628342	-10.16150541175045	0	59.55676519220465	1.039461644441125	-5.029348159948881	0	0	2.231359059994433	-0.06182994790087768	-3.670300206848678	0	-11.00808059878216	0	76.40008387557501	45.09090230606637	0	0	-17.16102141869923	11.59011218074642	-11.08950332053827	76.40008387557501	45.09090230606637	0	0
5.12	-0.1085549592733461	-0.913899697803893	147.6520941937263	0	0.9399999999999999	0	42.80889905167091	-10.16141047505798	0	59.55682423985523	1.039462675017043	-5.029325678894164	0	0	42.80889905167091	-10.16141047505798	0	59.55682423985523	1.039462675017043	-5.029325678894164	0	0	2.249594800113822	-0.07203608498021707	-3.638995904853852	0	-11.00842746157381	0	76.3998471436616	45.09086000133029	0	0	-17.38448124444579	11.28580202963206	-10.95748751415155	76.3998471436616	45.09086000133029	0	0
5.13	-0.112837121352579	-0.9088133410062582	147.6670579113182	0	0.9399999999999999	0	42.80913357082231	-10.16135070733795	0	59.55686171060329	1.03946332900497	-5.029311540796551	0	0	42.80913357082231	-10.16135070733795	0	59.55686171060329	1.03946332900497	-5.029311540796551	0	0	2.24306193045925	-0.06860519593557152	-3.642102286819408	0	-11.00864738146828	0	76.39969740779188	45.09083334408399	0	0	-17.51234123565252	11.16475771265287	-10.95278086888139	76.39969740779188	45.09083334408399	0	0
5.14	-0.1127418197758733	-0.92576870900354	147.6667753930808	0	0.9399999999999999	0	42.8178634748526	-10.15893442175553	0	59.55823486250212	1.039487295026734	-5.028724172774101	0	0	42.8178634748526	-10.15893442175553	0	59.55823486250212	1.039487295026734	-5.028724172774101	0	0	2.250827164984838	-0.08201149766344161	-3.628802674250228	0	-11.0166475540145	0	76.39412386835265	45.08977793272213	0	7.748155948878642e-36	-17.43332342547048	11.07336966873042	-10.88949977169154	76.39412386835265	45.08977793272213	0	7.748155948878642e-36
5.15	-0.1193335036117383	-0.929367003178485	147.6622094670084	0	0.9399999999999999	0	42.82537434841041	-10.15724563484078	0	59.55943853990973	1.039508303160629	-5.0283453397927	0	0	42.82537434841041	-10.15724563484078	0	59.55943853990973	1.039508303160629	-5.0283453397927	0	0	2.24182002625379	-0.09121798055444998	-3.61218755091676	0	-11.02384153191869	0	76.38932795983781	45.08899630905532	0	0	-17.46083101494197	10.98827448393187	-10.92134694420035	76.38932795983781	45.08899630905532	0	0
